<mxfile host="Electron" agent="Mozilla/5.0 (Windows NT 10.0; Win64; x64) AppleWebKit/537.36 (KHTML, like Gecko) draw.io/24.7.17 Chrome/128.0.6613.36 Electron/32.0.1 Safari/537.36" version="24.7.17">
  <diagram name="PÃ¡gina-1" id="BqWxhPuK6DkxUKHL6Gij">
    <mxGraphModel dx="724" dy="621" grid="1" gridSize="10" guides="1" tooltips="1" connect="1" arrows="1" fold="1" page="1" pageScale="1" pageWidth="1920" pageHeight="1200" math="0" shadow="0">
      <root>
        <mxCell id="0" />
        <mxCell id="1" parent="0" />
        <mxCell id="nnLb6alPjXdKr8z68Naw-1" value="DEPARTAMENTO" style="whiteSpace=wrap;html=1;align=center;" parent="1" vertex="1">
          <mxGeometry x="80" y="50" width="120" height="40" as="geometry" />
        </mxCell>
        <mxCell id="nnLb6alPjXdKr8z68Naw-2" value="PROYECTO" style="whiteSpace=wrap;html=1;align=center;" parent="1" vertex="1">
          <mxGeometry x="440" y="50" width="90" height="40" as="geometry" />
        </mxCell>
        <mxCell id="nnLb6alPjXdKr8z68Naw-3" value="Poseer" style="shape=rhombus;perimeter=rhombusPerimeter;whiteSpace=wrap;html=1;align=center;" parent="1" vertex="1">
          <mxGeometry x="260" y="40" width="120" height="60" as="geometry" />
        </mxCell>
        <mxCell id="nnLb6alPjXdKr8z68Naw-4" value="1 : M" style="endArrow=none;html=1;rounded=0;exitX=1;exitY=0.5;exitDx=0;exitDy=0;entryX=0;entryY=0.5;entryDx=0;entryDy=0;" parent="1" source="nnLb6alPjXdKr8z68Naw-3" target="nnLb6alPjXdKr8z68Naw-2" edge="1">
          <mxGeometry width="50" height="50" relative="1" as="geometry">
            <mxPoint x="370" y="170" as="sourcePoint" />
            <mxPoint x="420" y="120" as="targetPoint" />
          </mxGeometry>
        </mxCell>
        <mxCell id="nnLb6alPjXdKr8z68Naw-5" value="1 : 1" style="endArrow=none;html=1;rounded=0;exitX=1;exitY=0.5;exitDx=0;exitDy=0;entryX=0;entryY=0.5;entryDx=0;entryDy=0;" parent="1" source="nnLb6alPjXdKr8z68Naw-1" target="nnLb6alPjXdKr8z68Naw-3" edge="1">
          <mxGeometry width="50" height="50" relative="1" as="geometry">
            <mxPoint x="170" y="100" as="sourcePoint" />
            <mxPoint x="230" y="100" as="targetPoint" />
          </mxGeometry>
        </mxCell>
        <mxCell id="nnLb6alPjXdKr8z68Naw-7" value="Pertenecer" style="shape=rhombus;perimeter=rhombusPerimeter;whiteSpace=wrap;html=1;align=center;" parent="1" vertex="1">
          <mxGeometry x="80" y="140" width="120" height="60" as="geometry" />
        </mxCell>
        <mxCell id="nnLb6alPjXdKr8z68Naw-8" value="1 : 1" style="endArrow=none;html=1;rounded=0;entryX=0.5;entryY=1;entryDx=0;entryDy=0;exitX=0.5;exitY=0;exitDx=0;exitDy=0;" parent="1" source="nnLb6alPjXdKr8z68Naw-7" target="nnLb6alPjXdKr8z68Naw-1" edge="1">
          <mxGeometry width="50" height="50" relative="1" as="geometry">
            <mxPoint x="190" y="160" as="sourcePoint" />
            <mxPoint x="240" y="110" as="targetPoint" />
          </mxGeometry>
        </mxCell>
        <mxCell id="nnLb6alPjXdKr8z68Naw-9" value="EMPLEADO" style="whiteSpace=wrap;html=1;align=center;" parent="1" vertex="1">
          <mxGeometry x="90" y="250" width="100" height="40" as="geometry" />
        </mxCell>
        <mxCell id="nnLb6alPjXdKr8z68Naw-10" value="1 : M" style="endArrow=none;html=1;rounded=0;exitX=0.5;exitY=1;exitDx=0;exitDy=0;entryX=0.5;entryY=0;entryDx=0;entryDy=0;" parent="1" source="nnLb6alPjXdKr8z68Naw-7" target="nnLb6alPjXdKr8z68Naw-9" edge="1">
          <mxGeometry width="50" height="50" relative="1" as="geometry">
            <mxPoint x="190" y="160" as="sourcePoint" />
            <mxPoint x="240" y="110" as="targetPoint" />
          </mxGeometry>
        </mxCell>
        <mxCell id="nnLb6alPjXdKr8z68Naw-11" value="Trabajar" style="shape=rhombus;perimeter=rhombusPerimeter;whiteSpace=wrap;html=1;align=center;" parent="1" vertex="1">
          <mxGeometry x="425" y="240" width="120" height="60" as="geometry" />
        </mxCell>
        <mxCell id="nnLb6alPjXdKr8z68Naw-14" value="1 : M" style="endArrow=none;html=1;rounded=0;entryX=0;entryY=0.5;entryDx=0;entryDy=0;exitX=1;exitY=0.5;exitDx=0;exitDy=0;" parent="1" source="nnLb6alPjXdKr8z68Naw-9" target="nnLb6alPjXdKr8z68Naw-11" edge="1">
          <mxGeometry width="50" height="50" relative="1" as="geometry">
            <mxPoint x="150" y="150" as="sourcePoint" />
            <mxPoint x="150" y="100" as="targetPoint" />
          </mxGeometry>
        </mxCell>
        <mxCell id="nnLb6alPjXdKr8z68Naw-16" value="Supervisar" style="shape=rhombus;perimeter=rhombusPerimeter;whiteSpace=wrap;html=1;align=center;" parent="1" vertex="1">
          <mxGeometry x="80" y="360" width="120" height="60" as="geometry" />
        </mxCell>
        <mxCell id="nnLb6alPjXdKr8z68Naw-17" value="1 : M" style="endArrow=none;html=1;rounded=0;entryX=0.5;entryY=0;entryDx=0;entryDy=0;exitX=0.5;exitY=1;exitDx=0;exitDy=0;" parent="1" source="nnLb6alPjXdKr8z68Naw-9" target="nnLb6alPjXdKr8z68Naw-16" edge="1">
          <mxGeometry width="50" height="50" relative="1" as="geometry">
            <mxPoint x="200" y="280" as="sourcePoint" />
            <mxPoint x="435" y="280" as="targetPoint" />
          </mxGeometry>
        </mxCell>
        <mxCell id="nnLb6alPjXdKr8z68Naw-18" value="1 : 1" style="endArrow=none;html=1;rounded=0;entryX=0;entryY=0.5;entryDx=0;entryDy=0;exitX=0;exitY=0.5;exitDx=0;exitDy=0;edgeStyle=orthogonalEdgeStyle;" parent="1" source="nnLb6alPjXdKr8z68Naw-16" target="nnLb6alPjXdKr8z68Naw-9" edge="1">
          <mxGeometry width="50" height="50" relative="1" as="geometry">
            <mxPoint x="150" y="300" as="sourcePoint" />
            <mxPoint x="140" y="450" as="targetPoint" />
            <Array as="points">
              <mxPoint x="40" y="390" />
              <mxPoint x="40" y="270" />
            </Array>
          </mxGeometry>
        </mxCell>
        <mxCell id="nnLb6alPjXdKr8z68Naw-19" value="0 : M" style="endArrow=none;html=1;rounded=0;entryX=0.5;entryY=0;entryDx=0;entryDy=0;exitX=0.5;exitY=1;exitDx=0;exitDy=0;" parent="1" source="nnLb6alPjXdKr8z68Naw-2" target="nnLb6alPjXdKr8z68Naw-11" edge="1">
          <mxGeometry width="50" height="50" relative="1" as="geometry">
            <mxPoint x="200" y="280" as="sourcePoint" />
            <mxPoint x="435" y="280" as="targetPoint" />
          </mxGeometry>
        </mxCell>
        <mxCell id="qmWbXDeSdggv8wv0JXr6-4" value="jefe" style="text;html=1;align=center;verticalAlign=middle;whiteSpace=wrap;rounded=0;" parent="1" vertex="1">
          <mxGeometry x="40" y="240" width="60" height="30" as="geometry" />
        </mxCell>
        <mxCell id="qmWbXDeSdggv8wv0JXr6-5" value="subordinado" style="text;html=1;align=center;verticalAlign=middle;whiteSpace=wrap;rounded=0;" parent="1" vertex="1">
          <mxGeometry x="150" y="290" width="60" height="30" as="geometry" />
        </mxCell>
      </root>
    </mxGraphModel>
  </diagram>
</mxfile>
